<?xml version="1.0" encoding="UTF-8" standalone="no"?><!DOCTYPE svg PUBLIC "-//W3C//DTD SVG 1.1//EN" "http://www.w3.org/Graphics/SVG/1.1/DTD/svg11.dtd"><svg width="100%" height="100%" viewBox="0 0 379 384" version="1.1" xmlns="http://www.w3.org/2000/svg" xmlns:xlink="http://www.w3.org/1999/xlink" xml:space="preserve" xmlns:serif="http://www.serif.com/" style="fill-rule:evenodd;clip-rule:evenodd;stroke-linejoin:round;stroke-miterlimit:2;"><path d="M372,51.852l0,280.296c0,23.375 -18.977,42.352 -42.352,42.352l-280.296,0c-23.375,0 -42.352,-18.977 -42.352,-42.352l0,-280.296c0,-23.375 18.977,-42.352 42.352,-42.352l280.296,-0c23.375,0 42.352,18.977 42.352,42.352Z" style="fill:#d20000;"/><g transform="matrix(22.219475,0,0,22.219475,-1220.229888,-2916.643211)"><text x="57.02px" y="144.274px" style="font-family:'DejaVuSansMono-Bold', 'DejaVu Sans Mono', monospace;font-weight:700;font-size:12px;">C</text><g transform="matrix(12,0,0,12,70.014198,144.274403)"></g><text x="62.684px" y="144.274px" style="font-family:'Arial-BoldMT', 'Arial', sans-serif;font-weight:700;font-size:12px;">L</text></g><rect x="201.94" y="81.164" width="11.532" height="228.67" style="fill:#d20000;"/><path d="M201.94,97.865l-5.448,0l0,-21.791l10.896,0l-0,5.09l-5.448,0l0,16.701Zm6.084,-16.701l-0,-5.448l10.896,-0l0,21.791l-5.448,0l0,-16.343l-5.448,0Zm5.448,70.822l5.448,0l-0,21.791l-5.448,-0l0,-21.791Zm0,76.27l5.448,0l-0,21.791l-5.448,-0l0,-21.791Zm0,76.13l5.309,0l0,10.896l-21.791,0l0,-10.896l4.951,0l0,5.448l11.532,0l0,-5.448Zm-11.532,-53.981l-5.448,0l-0,-21.791l5.448,-0l0,21.791Zm0,-76.27l-5.448,0l-0,-21.791l5.448,-0l0,21.791Z" style="fill:#d20000;"/><path d="M189.5,189.954l36.412,0l0,11.532l-36.412,0l0,-11.532Z" style="fill:#d20000;"/></svg>